<svg width="59" height="57" viewBox="0 0 59 57" version="1.1" xmlns="http://www.w3.org/2000/svg" xmlns:xlink="http://www.w3.org/1999/xlink" xmlns:figma="http://www.figma.com/figma/ns">
<title>LEIT</title>
<desc>Created using Figma</desc>
<g id="Canvas" transform="translate(-814 -1803)" figma:type="canvas">
<g id="LEIT" style="mix-blend-mode:normal;" filter="url(#filter0_d)" figma:type="frame">
<g id="Ellipse (Stroke)" style="mix-blend-mode:normal;" figma:type="vector">
<use xlink:href="#path0_fill" transform="matrix(0.994579 -0.103492 0.102572 0.994777 817.102 1807.8)" fill="#FFFFFF" style="mix-blend-mode:normal;"/>
</g>
<g id="Line 2 (Stroke)" style="mix-blend-mode:normal;" figma:type="vector">
<use xlink:href="#path1_fill" transform="matrix(0.734353 0.679032 -0.675444 0.737169 851.117 1834.88)" fill="#FFFFFF" style="mix-blend-mode:normal;"/>
</g>
</g>
</g>
<defs>
<filter id="filter0_d" filterUnits="userSpaceOnUse" x="814" y="1803" width="59" height="57" color-interpolation-filters="sRGB">
<feFlood flood-opacity="0" result="BackgroundImageFix"/>
<desc>type="dropShadow" x="0" y="2" size="4" spread="0" color="0,0,0,0.25" blend="normal"</desc>
<feColorMatrix in="SourceAlpha" type="matrix" values="0 0 0 0 0 0 0 0 0 0 0 0 0 0 0 0 0 0 255 0"/>
<feOffset dx="0" dy="2"/>
<feGaussianBlur stdDeviation="2"/>
<feColorMatrix type="matrix" values="0 0 0 0 0 0 0 0 0 0 0 0 0 0 0 0 0 0 0.25 0"/>
<feBlend mode="normal" in2="BackgroundImageFix" result="effect1_dropShadow"/>
<feBlend mode="normal" in="SourceGraphic" in2="effect1_dropShadow" result="shape"/>
</filter>
<path id="path0_fill" fill-rule="evenodd" d="M 18.5825 33.3275C 26.6198 33.3275 33.165 26.7788 33.165 18.6638C 33.165 10.5487 26.6198 4 18.5825 4C 10.5453 4 4 10.5487 4 18.6638C 4 26.7788 10.5453 33.3275 18.5825 33.3275ZM 18.5825 37.3275C 28.8454 37.3275 37.165 28.9715 37.165 18.6638C 37.165 8.35606 28.8454 0 18.5825 0C 8.31967 0 0 8.35606 0 18.6638C 0 28.9715 8.31967 37.3275 18.5825 37.3275Z"/>
<path id="path1_fill" fill-rule="evenodd" d="M 0 2C 0 0.895431 0.895431 0 2 0L 22.9673 0C 24.0719 0 24.9673 0.895431 24.9673 2C 24.9673 3.10457 24.0719 4 22.9673 4L 2 4C 0.895431 4 0 3.10457 0 2Z"/>
</defs>
</svg>
