<svg width="194" height="157" viewBox="0 0 194 157" version="1.1" xmlns="http://www.w3.org/2000/svg" xmlns:xlink="http://www.w3.org/1999/xlink" xmlns:figma="http://www.figma.com/figma/ns">
<title>Moviebox logo</title>
<desc>Created using Figma</desc>
<g id="Canvas" transform="translate(1646 1437)" figma:type="canvas">
<g id="Moviebox logo" style="mix-blend-mode:normal;" filter="url(#filter0_d)" figma:type="frame">
<g id="Rectangle 3 (Stroke)" style="mix-blend-mode:normal;" figma:type="vector">
<use xlink:href="#path0_fill" transform="translate(-1641.29 -1435)" fill="#FFFFFF" style="mix-blend-mode:normal;"/>
<mask id="mask0_outline_ins">
<use xlink:href="#path0_fill" fill="white" transform="translate(-1641.29 -1435)"/>
</mask>
<g mask="url(#mask0_outline_ins)">
<use xlink:href="#path1_stroke_2x" transform="translate(-1641.29 -1435)" fill="#FFFFFF" style="mix-blend-mode:normal;"/>
</g>
</g>
<g id="MOVIE" style="mix-blend-mode:normal;" figma:type="vector">
<use xlink:href="#path2_fill" transform="translate(-1609.96 -1403.03)" fill="#FFFFFF" style="mix-blend-mode:normal;"/>
<use xlink:href="#path3_fill" transform="translate(-1609.96 -1403.03)" fill="#FFFFFF" style="mix-blend-mode:normal;"/>
<use xlink:href="#path4_fill" transform="translate(-1609.96 -1403.03)" fill="#FFFFFF" style="mix-blend-mode:normal;"/>
<use xlink:href="#path5_fill" transform="translate(-1609.96 -1403.03)" fill="#FFFFFF" style="mix-blend-mode:normal;"/>
<use xlink:href="#path6_fill" transform="translate(-1609.96 -1403.03)" fill="#FFFFFF" style="mix-blend-mode:normal;"/>
</g>
<g id="BOX" style="mix-blend-mode:normal;" figma:type="vector">
<use xlink:href="#path7_fill" transform="translate(-1609.32 -1353.09)" fill="#FFFFFF" style="mix-blend-mode:normal;"/>
<use xlink:href="#path8_fill" transform="translate(-1609.32 -1353.09)" fill="#FFFFFF" style="mix-blend-mode:normal;"/>
<use xlink:href="#path9_fill" transform="translate(-1609.32 -1353.09)" fill="#FFFFFF" style="mix-blend-mode:normal;"/>
</g>
</g>
</g>
<defs>
<filter id="filter0_d" filterUnits="userSpaceOnUse" x="-1646" y="-1437" width="194" height="157" color-interpolation-filters="sRGB">
<feFlood flood-opacity="0" result="BackgroundImageFix"/>
<desc>type="dropShadow" x="0" y="2" size="4" spread="0" color="0,0,0,0.25" blend="normal"</desc>
<feColorMatrix in="SourceAlpha" type="matrix" values="0 0 0 0 0 0 0 0 0 0 0 0 0 0 0 0 0 0 255 0"/>
<feOffset dx="0" dy="2"/>
<feGaussianBlur stdDeviation="2"/>
<feColorMatrix type="matrix" values="0 0 0 0 0 0 0 0 0 0 0 0 0 0 0 0 0 0 0.25 0"/>
<feBlend mode="normal" in2="BackgroundImageFix" result="effect1_dropShadow"/>
<feBlend mode="normal" in="SourceGraphic" in2="effect1_dropShadow" result="shape"/>
</filter>
<path id="path0_fill" fill-rule="evenodd" d="M 178.934 5.79767L 6.06557 5.79767L 6.06557 143.202L 178.934 143.202L 178.934 5.79767ZM 6.06557 0L 0 0L 0 5.79767L 0 143.202L 0 149L 6.06557 149L 178.934 149L 185 149L 185 143.202L 185 5.79767L 185 0L 178.934 0L 6.06557 0Z"/>
<path id="path1_stroke_2x" d="M 6.06557 5.79767L 6.06557 1.79767L 2.06557 1.79767L 2.06557 5.79767L 6.06557 5.79767ZM 178.934 5.79767L 182.934 5.79767L 182.934 1.79767L 178.934 1.79767L 178.934 5.79767ZM 6.06557 143.202L 2.06557 143.202L 2.06557 147.202L 6.06557 147.202L 6.06557 143.202ZM 178.934 143.202L 178.934 147.202L 182.934 147.202L 182.934 143.202L 178.934 143.202ZM 0 0L 0 -4L -4 -4L -4 0L 0 0ZM 0 149L -4 149L -4 153L 0 153L 0 149ZM 185 149L 185 153L 189 153L 189 149L 185 149ZM 185 0L 189 0L 189 -4L 185 -4L 185 0ZM 6.06557 9.79767L 178.934 9.79767L 178.934 1.79767L 6.06557 1.79767L 6.06557 9.79767ZM 10.0656 143.202L 10.0656 5.79767L 2.06557 5.79767L 2.06557 143.202L 10.0656 143.202ZM 178.934 139.202L 6.06557 139.202L 6.06557 147.202L 178.934 147.202L 178.934 139.202ZM 174.934 5.79767L 174.934 143.202L 182.934 143.202L 182.934 5.79767L 174.934 5.79767ZM 0 4L 6.06557 4L 6.06557 -4L 0 -4L 0 4ZM 4 5.79767L 4 0L -4 0L -4 5.79767L 4 5.79767ZM 4 143.202L 4 5.79767L -4 5.79767L -4 143.202L 4 143.202ZM 4 149L 4 143.202L -4 143.202L -4 149L 4 149ZM 6.06557 145L 0 145L 0 153L 6.06557 153L 6.06557 145ZM 178.934 145L 6.06557 145L 6.06557 153L 178.934 153L 178.934 145ZM 185 145L 178.934 145L 178.934 153L 185 153L 185 145ZM 181 143.202L 181 149L 189 149L 189 143.202L 181 143.202ZM 181 5.79767L 181 143.202L 189 143.202L 189 5.79767L 181 5.79767ZM 181 0L 181 5.79767L 189 5.79767L 189 0L 181 0ZM 178.934 4L 185 4L 185 -4L 178.934 -4L 178.934 4ZM 6.06557 4L 178.934 4L 178.934 -4L 6.06557 -4L 6.06557 4Z"/>
<path id="path2_fill" d="M 0 35.8674L 0 0.356692L 7.33911 0.356692L 12.605 27.5446L 17.8709 0.356692L 25.21 0.356692L 25.21 35.8674L 19.9027 35.8674L 19.9027 7.84723L 14.5953 35.8674L 10.6148 35.8674L 5.30738 7.84723L 5.30738 35.8674L 0 35.8674Z"/>
<path id="path3_fill" d="M 44.3415 36.2241C 42.4756 36.2241 40.8723 35.9533 39.5317 35.4116C 38.2048 34.87 37.1475 34.0773 36.3597 33.0337C 35.5719 31.99 34.9983 30.768 34.6389 29.3677C 34.2796 27.9541 34.0999 26.316 34.0999 24.4532L 34.0999 11.5727C 34.0999 9.70996 34.2796 8.08503 34.6389 6.69789C 34.9983 5.31075 35.5719 4.10857 36.3597 3.09133C 37.1475 2.06089 38.2048 1.28806 39.5317 0.772833C 40.8723 0.257611 42.4756 0 44.3415 0C 47.9627 0 50.5749 0.990812 52.1782 2.97244C 53.7814 4.95406 54.5831 7.82081 54.5831 11.5727L 54.5831 24.4532C 54.5831 26.2895 54.3965 27.9145 54.0233 29.328C 53.6639 30.7284 53.0904 31.957 52.3025 33.0139C 51.5147 34.0575 50.4505 34.8568 49.1098 35.4116C 47.783 35.9533 46.1935 36.2241 44.3415 36.2241ZM 40.4646 30.4576C 41.1833 31.5276 42.4756 32.0627 44.3415 32.0627C 46.2074 32.0627 47.4927 31.5276 48.1976 30.4576C 48.9163 29.3875 49.2757 27.8088 49.2757 25.7215L 49.2757 10.3044C 49.2757 8.24356 48.9232 6.7045 48.2184 5.68726C 47.5135 4.67003 46.2212 4.16141 44.3415 4.16141C 42.4618 4.16141 41.1695 4.67003 40.4646 5.68726C 39.7597 6.7045 39.4073 8.24356 39.4073 10.3044L 39.4073 25.7215C 39.4073 27.8088 39.7597 29.3875 40.4646 30.4576Z"/>
<path id="path4_fill" d="M 69.0291 35.8674L 61.068 0.356692L 66.3754 0.356692L 70.2937 19.3803L 71.662 28.258L 73.0718 19.3803L 76.9902 0.356692L 82.2975 0.356692L 74.3365 35.8674L 69.0291 35.8674Z"/>
<path id="path5_fill" d="M 89.6947 35.8674L 89.6947 0.356692L 95.0021 0.356692L 95.0021 35.8674L 89.6947 35.8674Z"/>
<path id="path6_fill" d="M 104.929 35.8674L 104.929 0.356692L 119.524 0.356692L 119.524 4.16141L 110.236 4.16141L 110.236 15.5756L 116.87 15.5756L 116.87 19.3803L 110.236 19.3803L 110.236 32.0627L 119.524 32.0627L 119.524 35.8674L 104.929 35.8674Z"/>
<path id="path7_fill" d="M 7.54643 31.27L 8.25131 31.27C 9.23263 31.27 10.0274 31.1643 10.6355 30.953C 11.2436 30.7284 11.7066 30.3519 12.0245 29.8234C 12.3424 29.295 12.5497 28.7005 12.6465 28.04C 12.7571 27.3662 12.8123 26.4679 12.8123 25.345C 12.8123 23.4822 12.4668 22.0357 11.7757 21.0052C 11.0985 19.9748 9.93751 19.4595 8.29278 19.4595L 7.54643 19.4595L 7.54643 31.27ZM 7.50496 14.7235L 8.79034 14.7235C 9.48141 14.7235 10.0619 14.598 10.5318 14.347C 11.0018 14.096 11.3542 13.7327 11.5892 13.2571C 11.8379 12.7683 12.0107 12.2464 12.1075 11.6916C 12.2042 11.1367 12.2526 10.4828 12.2526 9.72977C 12.2526 9.13529 12.2042 8.61346 12.1075 8.16429C 12.0245 7.71512 11.9278 7.34522 11.8172 7.05458C 11.7066 6.75073 11.5201 6.49973 11.2574 6.30156C 10.9948 6.09019 10.7599 5.93827 10.5526 5.84579C 10.3591 5.7401 10.055 5.66744 9.64035 5.62781C 9.23954 5.57497 8.91474 5.54855 8.66595 5.54855C 8.41717 5.53534 8.03017 5.52873 7.50496 5.52873L 7.50496 14.7235ZM 0 36.3628L 0 0.693568L 7.69155 0.693568C 9.07368 0.693568 10.29 0.766227 11.3404 0.911547C 12.4046 1.04365 13.4412 1.31448 14.4502 1.72401C 15.4729 2.12034 16.3091 2.65538 16.9587 3.32913C 17.6222 4.00288 18.1474 4.89461 18.5344 6.00432C 18.9352 7.10082 19.1356 8.40209 19.1356 9.90812C 19.1356 11.7708 18.6726 13.2372 17.7465 14.3073C 16.8343 15.3774 15.4107 16.2229 13.4758 16.8438C 17.9124 17.8742 20.1307 20.8731 20.1307 25.8404C 20.1307 29.4205 19.2323 32.0693 17.4356 33.7867C 15.6388 35.5041 12.8953 36.3628 9.20498 36.3628L 0 36.3628Z"/>
<path id="path8_fill" d="M 48.633 24.6316L 48.633 12.6428C 48.633 4.21425 52.268 0 59.538 0C 66.8218 0 70.4637 4.21425 70.4637 12.6428L 70.4637 24.4532C 70.4637 25.88 70.3532 27.2011 70.132 28.4165C 69.9109 29.6187 69.5308 30.7614 68.9918 31.8447C 68.4666 32.928 67.7893 33.8527 66.96 34.619C 66.1446 35.372 65.108 35.9665 63.8502 36.4024C 62.5925 36.8384 61.1551 37.0564 59.538 37.0564C 57.9347 37.0564 56.5042 36.8384 55.2465 36.4024C 53.9887 35.9797 52.9522 35.405 52.1367 34.6784C 51.3212 33.9386 50.644 33.0403 50.105 31.9834C 49.5798 30.9133 49.1997 29.7772 48.9647 28.575C 48.7436 27.3728 48.633 26.0584 48.633 24.6316ZM 62.9173 26.2565L 62.9173 10.8395C 62.9173 7.3254 61.7909 5.56836 59.538 5.56836C 58.8608 5.56836 58.2872 5.7335 57.8172 6.06377C 57.3473 6.38083 57.0018 6.82339 56.7807 7.39146C 56.5595 7.94631 56.4006 8.50117 56.3038 9.05602C 56.2209 9.59767 56.1794 10.1922 56.1794 10.8395L 56.1794 26.2565C 56.1794 29.7574 57.2989 31.5078 59.538 31.5078C 61.7909 31.5078 62.9173 29.7574 62.9173 26.2565Z"/>
<path id="path9_fill" d="M 97.7636 36.3628L 103.797 17.9139L 97.7221 0.693568L 104.895 0.693568L 108.399 11.3547L 112.172 0.693568L 119.18 0.693568L 113.147 17.795L 119.097 36.3628L 111.986 36.3628L 108.42 24.5721L 104.895 36.3628L 97.7636 36.3628Z"/>
</defs>
</svg>
