<svg width="139" height="113" viewBox="0 0 139 113" version="1.1" xmlns="http://www.w3.org/2000/svg" xmlns:xlink="http://www.w3.org/1999/xlink" xmlns:figma="http://www.figma.com/figma/ns">
<title>Moviebox logo</title>
<desc>Created using Figma</desc>
<g id="Canvas" transform="translate(500 -1784)" figma:type="canvas">
<g id="Moviebox logo" style="mix-blend-mode:normal;" filter="url(#filter0_d)" figma:type="frame">
<g id="Rectangle 3 (Stroke)" style="mix-blend-mode:normal;" figma:type="vector">
<use xlink:href="#path0_fill" transform="translate(-495.68 1786)" fill="#FFFFFF" style="mix-blend-mode:normal;"/>
</g>
<g id="Rectangle 3 (Stroke) (Stroke)" style="mix-blend-mode:normal;" figma:type="vector">
<use xlink:href="#path1_fill" transform="translate(-495.68 1786)" fill="#FFFFFF" style="mix-blend-mode:normal;"/>
</g>
<g id="MOVIE" style="mix-blend-mode:normal;" figma:type="vector">
<use xlink:href="#path2_fill" transform="translate(-473.665 1808.53)" fill="#FFFFFF" style="mix-blend-mode:normal;"/>
<use xlink:href="#path3_fill" transform="translate(-473.665 1808.53)" fill="#FFFFFF" style="mix-blend-mode:normal;"/>
<use xlink:href="#path4_fill" transform="translate(-473.665 1808.53)" fill="#FFFFFF" style="mix-blend-mode:normal;"/>
<use xlink:href="#path5_fill" transform="translate(-473.665 1808.53)" fill="#FFFFFF" style="mix-blend-mode:normal;"/>
<use xlink:href="#path6_fill" transform="translate(-473.665 1808.53)" fill="#FFFFFF" style="mix-blend-mode:normal;"/>
</g>
<g id="BOX" style="mix-blend-mode:normal;" figma:type="vector">
<use xlink:href="#path7_fill" transform="translate(-473.213 1843.72)" fill="#FFFFFF" style="mix-blend-mode:normal;"/>
<use xlink:href="#path8_fill" transform="translate(-473.213 1843.72)" fill="#FFFFFF" style="mix-blend-mode:normal;"/>
<use xlink:href="#path9_fill" transform="translate(-473.213 1843.72)" fill="#FFFFFF" style="mix-blend-mode:normal;"/>
</g>
</g>
</g>
<defs>
<filter id="filter0_d" filterUnits="userSpaceOnUse" x="-500" y="1784" width="139" height="113" color-interpolation-filters="sRGB">
<feFlood flood-opacity="0" result="BackgroundImageFix"/>
<desc>type="dropShadow" x="0" y="2" size="4" spread="0" color="0,0,0,0.25" blend="normal"</desc>
<feColorMatrix in="SourceAlpha" type="matrix" values="0 0 0 0 0 0 0 0 0 0 0 0 0 0 0 0 0 0 255 0"/>
<feOffset dx="0" dy="2"/>
<feGaussianBlur stdDeviation="2"/>
<feColorMatrix type="matrix" values="0 0 0 0 0 0 0 0 0 0 0 0 0 0 0 0 0 0 0.25 0"/>
<feBlend mode="normal" in2="BackgroundImageFix" result="effect1_dropShadow"/>
<feBlend mode="normal" in="SourceGraphic" in2="effect1_dropShadow" result="shape"/>
</filter>
<path id="path0_fill" fill-rule="evenodd" d="M 125.738 4.0856L 4.2623 4.0856L 4.2623 100.914L 125.738 100.914L 125.738 4.0856ZM 4.2623 0L 0 0L 0 4.0856L 0 100.914L 0 105L 4.2623 105L 125.738 105L 130 105L 130 100.914L 130 4.0856L 130 0L 125.738 0L 4.2623 0Z"/>
<path id="path1_fill" fill-rule="evenodd" d="M 121.738 4.0856L 125.738 4.0856L 125.738 8.0856L 125.738 96.9144L 125.738 100.914L 121.738 100.914L 8.26229 100.914L 4.2623 100.914L 4.2623 96.9144L 4.2623 8.0856L 4.2623 4.0856L 8.26229 4.0856L 121.738 4.0856ZM 4 0L 4.2623 0L 125.738 0L 126 0L 130 0L 130 4L 130 4.0856L 130 100.914L 130 101L 130 105L 126 105L 125.738 105L 4.2623 105L 4 105L 0 105L 0 101L 0 100.914L 0 4.0856L 0 4L 0 0L 4 0Z"/>
<path id="path2_fill" d="M 0 25.2757L 0 0.25136L 5.15721 0.25136L 8.85758 19.4106L 12.558 0.25136L 17.7152 0.25136L 17.7152 25.2757L 13.9857 25.2757L 13.9857 5.52993L 10.2561 25.2757L 7.45902 25.2757L 3.72951 5.52993L 3.72951 25.2757L 0 25.2757Z"/>
<path id="path3_fill" d="M 31.1589 25.527C 29.8477 25.527 28.7211 25.3362 27.779 24.9545C 26.8466 24.5728 26.1036 24.0142 25.55 23.2788C 24.9964 22.5433 24.5934 21.6822 24.3409 20.6953C 24.0884 19.6992 23.9621 18.5448 23.9621 17.2321L 23.9621 8.15525C 23.9621 6.84259 24.0884 5.6975 24.3409 4.71999C 24.5934 3.74248 24.9964 2.8953 25.55 2.17846C 26.1036 1.4523 26.8466 0.90769 27.779 0.544614C 28.7211 0.181538 29.8477 0 31.1589 0C 33.7035 0 35.5391 0.698223 36.6657 2.09467C 37.7924 3.49112 38.3557 5.51131 38.3557 8.15525L 38.3557 17.2321C 38.3557 18.5262 38.2245 19.6713 37.9623 20.6674C 37.7098 21.6542 37.3067 22.52 36.7531 23.2648C 36.1995 24.0003 35.4517 24.5635 34.5096 24.9545C 33.5772 25.3362 32.4603 25.527 31.1589 25.527ZM 28.4346 21.4634C 28.9396 22.2175 29.8477 22.5945 31.1589 22.5945C 32.47 22.5945 33.3733 22.2175 33.8686 21.4634C 34.3736 20.7093 34.6262 19.5968 34.6262 18.1259L 34.6262 7.26152C 34.6262 5.80922 34.3785 4.72464 33.8832 4.0078C 33.3878 3.29096 32.4797 2.93254 31.1589 2.93254C 29.838 2.93254 28.9299 3.29096 28.4346 4.0078C 27.9393 4.72464 27.6916 5.80922 27.6916 7.26152L 27.6916 18.1259C 27.6916 19.5968 27.9393 20.7093 28.4346 21.4634Z"/>
<path id="path4_fill" d="M 48.5069 25.2757L 42.9127 0.25136L 46.6422 0.25136L 49.3956 13.6572L 50.3571 19.9133L 51.3478 13.6572L 54.1012 0.25136L 57.8307 0.25136L 52.2364 25.2757L 48.5069 25.2757Z"/>
<path id="path5_fill" d="M 63.0287 25.2757L 63.0287 0.25136L 66.7582 0.25136L 66.7582 25.2757L 63.0287 25.2757Z"/>
<path id="path6_fill" d="M 73.7336 25.2757L 73.7336 0.25136L 83.9897 0.25136L 83.9897 2.93254L 77.4631 2.93254L 77.4631 10.9761L 82.1249 10.9761L 82.1249 13.6572L 77.4631 13.6572L 77.4631 22.5945L 83.9897 22.5945L 83.9897 25.2757L 73.7336 25.2757Z"/>
<path id="path7_fill" d="M 5.3029 22.0359L 5.79822 22.0359C 6.48779 22.0359 7.04625 21.9614 7.47359 21.8125C 7.90093 21.6542 8.22629 21.3889 8.44967 21.0165C 8.67305 20.6441 8.81873 20.2252 8.88672 19.7597C 8.96442 19.2849 9.00327 18.6519 9.00327 17.8605C 9.00327 16.5479 8.76046 15.5285 8.27485 14.8023C 7.79895 14.0762 6.98312 13.7131 5.82736 13.7131L 5.3029 13.7131L 5.3029 22.0359ZM 5.27376 10.3756L 6.177 10.3756C 6.66261 10.3756 7.07053 10.2872 7.40074 10.1103C 7.73096 9.93339 7.97862 9.67737 8.14373 9.34223C 8.31855 8.99777 8.43996 8.63004 8.50794 8.23903C 8.57593 7.84803 8.60992 7.3872 8.60992 6.85655C 8.60992 6.43762 8.57593 6.06989 8.50794 5.75336C 8.44967 5.43683 8.38168 5.17616 8.30398 4.97135C 8.22629 4.75723 8.09517 4.58034 7.91064 4.4407C 7.7261 4.29175 7.561 4.18468 7.41531 4.11952C 7.27934 4.04504 7.06567 3.99384 6.7743 3.96591C 6.49265 3.92867 6.26441 3.91005 6.08959 3.91005C 5.91477 3.90074 5.64282 3.89609 5.27376 3.89609L 5.27376 10.3756ZM 0 25.6248L 0 0.488756L 5.40487 0.488756C 6.3761 0.488756 7.23078 0.539959 7.96891 0.642365C 8.71676 0.735461 9.44518 0.92631 10.1542 1.21491C 10.8729 1.4942 11.4605 1.87124 11.9169 2.34603C 12.3831 2.82082 12.7522 3.44922 13.0241 4.23123C 13.3058 5.00393 13.4466 5.92093 13.4466 6.98223C 13.4466 8.29489 13.1213 9.32826 12.4705 10.0823C 11.8295 10.8364 10.8292 11.4322 9.46946 11.8698C 12.5871 12.5959 14.1459 14.7092 14.1459 18.2097C 14.1459 20.7326 13.5146 22.5992 12.252 23.8094C 10.9894 25.0197 9.06154 25.6248 6.46837 25.6248L 0 25.6248Z"/>
<path id="path8_fill" d="M 34.1745 17.3578L 34.1745 8.90933C 34.1745 2.96978 36.7289 0 41.8375 0C 46.9559 0 49.5151 2.96978 49.5151 8.90933L 49.5151 17.2321C 49.5151 18.2376 49.4374 19.1686 49.282 20.025C 49.1266 20.8722 48.8595 21.6775 48.4807 22.4409C 48.1116 23.2043 47.6357 23.856 47.053 24.3959C 46.48 24.9266 45.7516 25.3455 44.8677 25.6527C 43.9839 25.9599 42.9739 26.1135 41.8375 26.1135C 40.7109 26.1135 39.7057 25.9599 38.8219 25.6527C 37.938 25.3548 37.2096 24.9498 36.6366 24.4378C 36.0636 23.9165 35.5877 23.2834 35.2089 22.5386C 34.8398 21.7846 34.5727 20.9839 34.4076 20.1368C 34.2522 19.2896 34.1745 18.3633 34.1745 17.3578ZM 44.2122 18.5029L 44.2122 7.63856C 44.2122 5.1622 43.4206 3.92401 41.8375 3.92401C 41.3616 3.92401 40.9586 4.04039 40.6283 4.27313C 40.2981 4.49656 40.0553 4.80843 39.8999 5.20875C 39.7445 5.59975 39.6328 5.99075 39.5648 6.38176C 39.5066 6.76346 39.4774 7.18239 39.4774 7.63856L 39.4774 18.5029C 39.4774 20.97 40.2641 22.2035 41.8375 22.2035C 43.4206 22.2035 44.2122 20.97 44.2122 18.5029Z"/>
<path id="path9_fill" d="M 68.6987 25.6248L 72.9381 12.6239L 68.6696 0.488756L 73.7103 0.488756L 76.1723 8.00164L 78.8238 0.488756L 83.7479 0.488756L 79.5085 12.5401L 83.6896 25.6248L 78.6926 25.6248L 76.1869 17.3159L 73.7103 25.6248L 68.6987 25.6248Z"/>
</defs>
</svg>
